<svg display="none" version="1.1" xmlns="http://www.w3.org/2000/svg">
	<symbol id="github" viewBox="0 0 20 20">
		<path fill="#ffffff" d="M9.99907916,0 C4.47773105,0 0,4.5904205 0,10.2533868 C0,14.7833822 2.86503576,18.6260419 6.83876117,19.9818304 C7.33908346,20.0762447 7.5214095,19.7596422 7.5214095,19.4877292 C7.5214095,19.2447699 7.512815,18.5996059 7.50790386,17.7442129 C4.72635747,18.3635703 4.13947635,16.3695415 4.13947635,16.3695415 C3.68458209,15.1849574 3.02894503,14.8696139 3.02894503,14.8696139 C2.12099819,14.2338913 3.09770097,14.2464799 3.09770097,14.2464799 C4.10141502,14.3188641 4.62936247,15.30329 4.62936247,15.30329 C5.52134811,16.869937 6.97013414,16.417378 7.53982627,16.1549064 C7.63068234,15.4927479 7.88913104,15.0408184 8.17459099,14.784641 C5.95414224,14.525946 3.6195095,13.6460053 3.6195095,9.7171139 C3.6195095,8.59799041 4.00933116,7.68217225 4.64900703,6.96588286 C4.54587311,6.7065584 4.20270727,5.66359573 4.74722981,4.25241751 C4.74722981,4.25241751 5.5864207,3.97672792 7.4968538,5.30356275 C8.29430001,5.07570971 9.15006599,4.96241262 10.0003069,4.95800662 C10.849934,4.96241262 11.7050861,5.07570971 12.5037601,5.30356275 C14.4129654,3.97672792 15.2509285,4.25241751 15.2509285,4.25241751 C15.7966788,5.66359573 15.453513,6.7065584 15.350993,6.96588286 C15.9918966,7.68217225 16.3786488,8.59799041 16.3786488,9.7171139 C16.3786488,13.6560761 14.0403327,14.5227989 11.8131312,14.7764585 C12.1716443,15.0930609 12.4914822,15.7187126 12.4914822,16.6754436 C12.4914822,18.045709 12.4792044,19.1516145 12.4792044,19.4877292 C12.4792044,19.7621599 12.6596888,20.0812801 13.1667639,19.981201 C17.1374198,18.6222653 20,14.7821233 20,10.2533868 C20,4.5904205 15.5222689,0 9.99907916,0"></path>
	</symbol>
	<symbol id="twitter" viewBox="0 0 20 17">
		<path fill="#55acee" d="M6.28991551,17 C3.97271297,17 1.81586744,16.2895561 0,15.0718928 C0.321006621,15.1115277 0.64764622,15.1318042 0.978821464,15.1318042 C2.90120341,15.1318042 4.67047076,14.4456922 6.07476499,13.2946736 C4.27923479,13.2600122 2.76389041,12.0192413 2.24177914,10.314176 C2.4922638,10.3642935 2.74933246,10.3911503 3.01371667,10.3911503 C3.38798054,10.3911503 3.75046637,10.3387374 4.09480961,10.2406449 C2.21763781,9.84643844 0.803321263,8.11183826 0.803321263,6.03246046 C0.803321263,6.01440287 0.803321263,5.99642179 0.803613885,5.97851722 C1.35688943,6.29995769 1.98953875,6.49300561 2.66220418,6.51527154 C1.56121292,5.74568139 0.836753356,4.43206798 0.836753356,2.94315819 C0.836753356,2.15665817 1.03910165,1.41943397 1.39229672,0.785581831 C3.41607228,3.38204953 6.43951864,5.09063454 9.84973847,5.26960365 C9.77980175,4.95550865 9.74344343,4.62794696 9.74344343,4.29158603 C9.74344343,1.92152688 11.5806723,0 13.8468122,0 C15.0269578,0 16.0933465,0.521221723 16.8418742,1.35531421 C17.7765097,1.1628019 18.6546692,0.80562882 19.447456,0.313865459 C19.1410805,1.31598538 18.4905081,2.15704075 17.6432935,2.68820945 C18.4733165,2.58445481 19.2641282,2.3537614 20,2.01242697 C19.4498701,2.87307024 18.7541607,3.62896416 17.952522,4.23404658 C17.9604228,4.4180657 17.9643732,4.60315603 17.9643732,4.78924106 C17.9643732,10.4604731 13.8372289,17 6.28991551,17"></path>
	</symbol>
  <symbol id="anchor" viewBox="0 0 24 22">
		<path d="M23.9463284,11.622 L23.9503284,16.014 L22.2413284,15.3 C20.4643284,19.251 16.6163284,22 11.9813284,22 C7.34632837,22 3.49932837,19.251 1.72232837,15.3 L0.01332837,16.014 L0.01732837,11.622 C-0.05467163,11.355 0.10432837,11.081 0.37132837,11.01 L5.02532837,12.972 L3.37932837,14.301 C4.70332837,17.353 7.54032837,19.549 10.9823284,19.915 L10.9823284,7.858 C9.25932837,7.413 7.98132837,5.862 7.98132837,4 C7.98132837,1.791 9.77232837,0 11.9813284,0 C14.1903284,0 15.9813284,1.791 15.9813284,4 C15.9813284,5.862 14.7043284,7.413 12.9813284,7.858 L12.9813284,19.915 C16.4253284,19.548 19.2453284,17.343 20.5603284,14.282 L18.9373284,12.971 L23.5933284,11.009 C23.8583284,11.081 24.0173284,11.355 23.9463284,11.622 L23.9463284,11.622 Z M13.9813284,4 C13.9813284,2.896 13.0853284,2 11.9813284,2 C10.8773284,2 9.98132837,2.896 9.98132837,4 C9.98132837,5.104 10.8773284,6 11.9813284,6 C13.0853284,6 13.9813284,5.104 13.9813284,4 L13.9813284,4 Z"></path>
	</symbol>
</svg>
